<svg width="34" height="33" fill="none" xmlns="http://www.w3.org/2000/svg"><circle cx="16.925" cy="16.185" r="16.185" fill="#7C509A"/><path d="M21.986 8.534a25.073 25.073 0 00-9.372 0c-1.364.295-3.085 1.944-3.381 3.24a18.507 18.507 0 000 7.658c.356 1.296 2.076 2.945 3.381 3.24.06 0 .119.058.119.117V26.5c0 .177.237.295.355.118l1.78-1.826s1.424-1.473 1.66-1.708c0 0 .06-.06.12-.06 1.779.06 3.618-.117 5.397-.412 1.365-.294 3.085-1.943 3.381-3.24a18.509 18.509 0 000-7.657c-.355-1.237-2.076-2.886-3.44-3.18zm.06 11.074c-.297.59-.653 1.06-1.246 1.355l-.534.177a7.507 7.507 0 01-.593-.177c-1.898-.766-3.678-1.826-5.102-3.358a14.162 14.162 0 01-1.957-2.945c-.237-.53-.475-1.001-.653-1.531-.178-.471.12-.943.416-1.296a2.745 2.745 0 011.067-.766c.297-.177.594-.059.83.177.475.589.95 1.178 1.306 1.826.237.412.178.883-.238 1.178-.118.059-.177.118-.296.236-.06.059-.178.117-.237.235a.569.569 0 00-.06.53c.475 1.355 1.365 2.415 2.729 3.004.237.118.415.177.712.177.415-.059.593-.53.89-.766.296-.235.652-.235 1.008-.059.296.177.593.413.949.648.297.236.593.413.89.648.178.118.237.413.118.707zm-2.492-4.418c-.119 0-.06 0 0 0-.237 0-.297-.117-.356-.294 0-.118 0-.295-.06-.412a1.119 1.119 0 00-.414-.648l-.356-.177c-.178-.059-.297-.059-.475-.059-.178-.059-.237-.177-.237-.353 0-.118.178-.236.297-.236.948.059 1.66.59 1.779 1.708v.236c0 .118-.06.236-.178.236zm-.593-2.591c-.297-.118-.593-.236-.95-.295-.118 0-.296-.059-.414-.059-.178 0-.297-.117-.238-.294 0-.177.119-.295.297-.236.593.059 1.127.177 1.66.412 1.069.53 1.662 1.414 1.84 2.592v.766c-.06.236-.475.295-.534 0 0-.059-.06-.177-.06-.236 0-.53-.118-1.06-.356-1.531-.355-.53-.77-.884-1.245-1.12zm3.203 3.534c-.178 0-.297-.177-.297-.353 0-.354-.059-.707-.118-1.06-.237-1.886-1.78-3.417-3.619-3.712-.296-.059-.593-.059-.83-.117-.178 0-.415 0-.475-.236-.059-.177.12-.354.297-.354h.119c2.432.06.118 0 0 0 2.491.06 4.567 1.709 4.982 4.183.06.412.119.824.119 1.296.119.176 0 .353-.178.353z" fill="#fff"/></svg>