<svg width="33" height="33" fill="none" xmlns="http://www.w3.org/2000/svg"><circle cx="16.555" cy="16.185" r="16.185" fill="url(#paint0_linear)"/><path d="M21.88 9.711h-9.84c-1.111 0-1.958.847-1.958 1.958v9.842c0 1.111.847 1.958 1.958 1.958h9.842c1.11 0 1.957-.847 1.957-1.958v-9.842c0-1.111-.846-1.958-1.957-1.958zm-4.92 11.006c2.275 0 4.127-1.799 4.127-3.968 0-.37-.053-.794-.159-1.111h1.164v5.608a.53.53 0 01-.529.53h-9.207a.53.53 0 01-.529-.53v-5.661h1.217a4.03 4.03 0 00-.159 1.11c-.052 2.223 1.8 4.022 4.075 4.022zm0-1.587c-1.482 0-2.646-1.164-2.646-2.593 0-1.428 1.164-2.593 2.646-2.593 1.481 0 2.645 1.164 2.645 2.593 0 1.482-1.164 2.593-2.645 2.593zm5.08-5.662a.587.587 0 01-.583.582h-1.481a.587.587 0 01-.582-.582V12.04c0-.318.264-.582.582-.582h1.481c.318 0 .582.264.582.582v1.428z" fill="#fff"/><defs><linearGradient id="paint0_linear" x1="7.249" y1="28.728" x2="28.694" y2="6.474" gradientUnits="userSpaceOnUse"><stop stop-color="#EEA054"/><stop offset=".503" stop-color="#D64763"/><stop offset="1" stop-color="#B62A99"/></linearGradient></defs></svg>