<svg width="14" height="14" fill="none" xmlns="http://www.w3.org/2000/svg"><path d="M4.67 5.871a.258.258 0 01.083-.353m-.083.353L3.507 1.534c.26.082.825.506 1.7 2.417a1.23 1.23 0 01-.454 1.568m-.083.352c.44.695.955 1.34 1.535 1.924M4.67 5.871l1.535 1.924M4.753 5.52l-.08-.128s0 0 0 0m.08.128l-.08-.127s0 0 0 0m0 0a1.08 1.08 0 00.398-1.376l-.001-.002h0c-.434-.95-.788-1.522-1.061-1.864-.274-.343-.458-.444-.547-.473h-.003 0a.201.201 0 00-.059-.01.11.11 0 00-.058.016H3.34h0c-.353.207-.79.524-1.132.83a3.5 3.5 0 00-.415.427.934.934 0 00-.105.161.172.172 0 00-.023.072h0c.081.944.538 1.998 1.177 3.016a16.209 16.209 0 002.216 2.753c.769.77 1.737 1.579 2.753 2.216 1.018.638 2.071 1.096 3.015 1.177l.018-.003a.284.284 0 00.051-.02.96.96 0 00.16-.106c.127-.099.274-.243.428-.415.308-.343.628-.778.833-1.131a.132.132 0 00.01-.113l-.003-.008h0c-.029-.09-.13-.274-.473-.548-.342-.272-.914-.627-1.864-1.06l-.001-.002h0a1.083 1.083 0 00-1.377.4h0a.41.41 0 01-.556.13l-.003-.002h0a11.552 11.552 0 01-1.95-1.555V7.9a11.552 11.552 0 01-1.556-1.95H4.54h0a.408.408 0 01.132-.557zm1.532 2.403c.584.58 1.23 1.095 1.924 1.535M6.205 7.795L8.129 9.33m0 0a.26.26 0 00.352-.082m-.352.082l.352-.082m0 0a1.233 1.233 0 011.568-.454m-1.568.454l1.568-.454m0 0c1.911.874 2.335 1.44 2.417 1.7l-2.417-1.7zm.708 4.353c-1.081-.092-2.246-.598-3.337-1.276A16.912 16.912 0 014.48 9.52a16.902 16.902 0 01-2.35-2.94C1.45 5.49.945 4.324.853 3.242l9.904 9.905zm0 0a.666.666 0 00.062.003c.271 0 .543-.15.785-.343a4.76 4.76 0 00.692-.707c.41-.503.712-1.007.725-1.029 0 0 0 0 0 0l-.13-.076a.795.795 0 00.067-.658l-2.2 2.81zM13.1 10.29c-.112-.35-.41-.692-.866-1.032-.459-.343-1.094-.697-1.906-1.069a1.85 1.85 0 00-2.15.377 11.1 11.1 0 01-1.502-1.242 11.09 11.09 0 01-1.242-1.502 1.852 1.852 0 00.377-2.15c-.372-.812-.726-1.447-1.069-1.906-.34-.455-.681-.754-1.033-.866a.946.946 0 00-.78.08h0a9.46 9.46 0 00-1.057.747 4.544 4.544 0 00-.711.71c-.189.247-.332.527-.308.805L13.1 10.29z" stroke="#394F28" stroke-width=".3"/></svg>